<svg width="32" height="32" viewBox="0 0 32 32" fill="none" xmlns="http://www.w3.org/2000/svg">
  <rect width="32" height="32" rx="6" fill="#1a1a1a"/>
  <path d="M8 12C8 10.3431 9.34315 9 11 9H21C22.6569 9 24 10.3431 24 12V18C24 19.6569 22.6569 21 21 21H11C9.34315 21 8 19.6569 8 18V12Z" fill="#ff5500"/>
  <circle cx="12" cy="15" r="1.5" fill="#1a1a1a"/>
  <circle cx="20" cy="15" r="1.5" fill="#1a1a1a"/>
  <rect x="10" y="13" width="1" height="4" rx="0.5" fill="#1a1a1a"/>
  <rect x="8" y="14" width="5" height="1" rx="0.5" fill="#1a1a1a"/>
  <circle cx="18" cy="13" r="0.8" fill="#1a1a1a"/>
  <circle cx="20" cy="11" r="0.8" fill="#1a1a1a"/>
  <circle cx="22" cy="13" r="0.8" fill="#1a1a1a"/>
  <circle cx="20" cy="15" r="0.8" fill="#1a1a1a"/>
</svg>
